# Blender 4.5.3 LTS
# www.blender.org
o Coupe_02_White
v -0.615983 0.627880 -0.427941
v -0.615983 0.759973 -0.756285
v -0.615983 0.627880 -1.084630
v -0.681528 0.627880 2.121004
v -0.681528 0.759973 1.792660
v -0.681528 0.627880 1.464315
v -1.006685 0.960005 2.488317
v -1.006686 0.288949 2.488317
v -1.006686 0.288949 -1.559662
v 0.000000 0.960005 2.488317
v 0.000000 0.288949 2.488317
v 0.000000 1.123791 -1.559662
v 0.000000 0.288949 -1.559662
v 0.000000 1.121571 1.429216
v 0.000000 1.710136 0.726627
v 0.000000 1.710136 -1.136089
v -1.006686 0.627880 1.464315
v -1.006686 0.627880 2.121004
v -1.006685 0.759973 1.792660
v -1.006686 0.288949 2.237736
v -0.681528 0.288949 2.237736
v -1.006686 0.288949 1.347584
v -0.681528 0.288949 1.347584
v -0.681528 0.288949 1.792660
v -1.006686 0.627880 -1.084630
v -1.006686 0.627880 -0.427941
v -1.006685 0.759973 -0.756285
v -0.615983 0.288949 -0.311209
v -1.006686 0.288949 -0.311209
v -0.615983 0.288949 -1.201362
v -1.006686 0.288949 -1.201362
v -0.615983 0.288949 -0.756285
v -0.695980 1.710136 0.726627
v -1.006685 1.121571 1.429216
v -1.006685 1.123791 -1.559662
v -0.695980 1.710136 -1.136089
v 0.615983 0.627880 -0.427941
v 0.615983 0.759973 -0.756285
v 0.615983 0.627880 -1.084630
v 0.681528 0.627880 2.121004
v 0.681528 0.759973 1.792660
v 0.681528 0.627880 1.464315
v 1.006685 0.960005 2.488317
v 1.006686 0.288949 2.488317
v 1.006686 0.288949 -1.559662
v 1.006686 0.627880 1.464315
v 1.006686 0.627880 2.121004
v 1.006685 0.759973 1.792660
v 1.006686 0.288949 2.237736
v 0.681528 0.288949 2.237736
v 1.006686 0.288949 1.347584
v 0.681528 0.288949 1.347584
v 0.681528 0.288949 1.792660
v 1.006686 0.627880 -1.084630
v 1.006686 0.627880 -0.427941
v 1.006685 0.759973 -0.756285
v 0.615983 0.288949 -0.311209
v 1.006686 0.288949 -0.311209
v 0.615983 0.288949 -1.201362
v 1.006686 0.288949 -1.201362
v 0.615983 0.288949 -0.756285
v 0.695980 1.710136 0.726627
v 1.006685 1.121571 1.429216
v 1.006685 1.123791 -1.559662
v 0.695980 1.710136 -1.136089
vn -0.0000 -0.9277 -0.3732
vn -0.0000 -0.9277 0.3732
vn -0.0000 -0.3256 0.9455
vn -0.0000 0.9886 0.1508
vn -0.0000 1.0000 -0.0000
vn -0.0000 -1.0000 -0.0000
vn -1.0000 -0.0000 -0.0000
vn -0.0000 -0.3256 -0.9455
vn -0.0000 -0.0000 1.0000
vn -0.0000 0.7666 0.6422
vn -0.0000 0.5856 -0.8106
vn -0.8840 0.4676 0.0002
vn -0.0000 -0.0000 -1.0000
vn 1.0000 -0.0000 -0.0000
vn 0.8840 0.4676 0.0002
vt 0.415069 0.227541
vt 0.348714 0.241179
vt 0.347488 0.173095
vt 0.406760 0.182652
vt 0.368860 0.113987
vt 0.419978 0.140678
vt 0.396718 0.062851
vt 0.472306 0.093210
vt 0.400433 0.869540
vt 0.345181 0.886665
vt 0.336099 0.819133
vt 0.388498 0.823179
vt 0.351884 0.756642
vt 0.399335 0.777025
vt 0.377261 0.696643
vt 0.453511 0.716751
vt 0.618497 0.148880
vt 0.834663 0.148880
vt 0.834663 0.378932
vt 0.618497 0.378932
vt 0.993678 0.404766
vt 0.844230 0.404765
vt 0.844230 0.004784
vt 0.993678 0.004784
vt 0.411549 0.004784
vt 0.608930 0.029150
vt 0.608930 0.972880
vt 0.388675 0.995216
vt 0.377986 0.953144
vt 0.449999 0.925303
vt 0.464130 0.824553
vt 0.373999 0.312366
vt 0.460825 0.286065
vt 0.475785 0.186385
vt 0.326532 0.874009
vt 0.182435 0.874009
vt 0.147742 0.646587
vt 0.147267 0.004784
vt 0.326532 0.004784
vt 0.326532 0.081722
vt 0.253753 0.106787
vt 0.225389 0.177293
vt 0.253753 0.247798
vt 0.326532 0.272864
vt 0.326532 0.629058
vt 0.253753 0.654124
vt 0.225388 0.724630
vt 0.253753 0.795135
vt 0.326532 0.820201
vt 0.618497 0.004784
vt 0.834663 0.004784
vt 0.834663 0.575741
vt 0.685215 0.575741
vt 0.834663 0.585308
vt 0.834663 0.740630
vt 0.618497 0.740630
vt 0.685215 0.585308
vt 0.004817 0.495731
vt 0.004784 0.095750
vt 0.834663 0.919896
vt 0.618497 0.919896
s 0
f 1/1/1 26/2/1 27/3/1 2/4/1
f 2/4/2 27/3/2 25/5/2 3/6/2
f 3/6/3 25/5/3 31/7/3 30/8/3
f 4/9/1 18/10/1 19/11/1 5/12/1
f 5/12/2 19/11/2 17/13/2 6/14/2
f 6/14/3 17/13/3 22/15/3 23/16/3
f 7/17/4 10/18/4 14/19/4 34/20/4
f 33/21/5 15/22/5 16/23/5 36/24/5
f 9/25/6 13/26/6 11/27/6 8/28/6 20/29/6 21/30/6 24/31/6 23/16/6 22/15/6 29/32/6 28/33/6 32/34/6 30/8/6 31/7/6
f 8/35/7 7/36/7 34/37/7 35/38/7 9/39/7 31/40/7 25/41/7 27/42/7 26/43/7 29/44/7 22/45/7 17/46/7 19/47/7 18/48/7 20/49/7
f 24/31/7 21/30/7 4/9/7
f 24/31/7 4/9/7 5/12/7
f 24/31/7 5/12/7 6/14/7
f 21/30/8 20/29/8 18/10/8 4/9/8
f 23/16/7 24/31/7 6/14/7
f 32/34/7 28/33/7 1/1/7
f 32/34/7 1/1/7 2/4/7
f 32/34/7 2/4/7 3/6/7
f 28/33/8 29/32/8 26/2/8 1/1/8
f 30/8/7 32/34/7 3/6/7
f 8/50/9 11/51/9 10/18/9 7/17/9
f 14/19/10 15/52/10 33/53/10 34/20/10
f 16/54/11 12/55/11 35/56/11 36/57/11
f 34/37/12 33/58/12 36/59/12 35/38/12
f 35/56/13 12/55/13 13/60/13 9/61/13
f 37/1/1 38/4/1 56/3/1 55/2/1
f 38/4/2 39/6/2 54/5/2 56/3/2
f 39/6/3 59/8/3 60/7/3 54/5/3
f 40/9/1 41/12/1 48/11/1 47/10/1
f 41/12/2 42/14/2 46/13/2 48/11/2
f 42/14/3 52/16/3 51/15/3 46/13/3
f 43/17/4 63/20/4 14/19/4 10/18/4
f 62/21/5 65/24/5 16/23/5 15/22/5
f 45/25/6 60/7/6 59/8/6 61/34/6 57/33/6 58/32/6 51/15/6 52/16/6 53/31/6 50/30/6 49/29/6 44/28/6 11/27/6 13/26/6
f 44/35/14 49/49/14 47/48/14 48/47/14 46/46/14 51/45/14 58/44/14 55/43/14 56/42/14 54/41/14 60/40/14 45/39/14 64/38/14 63/37/14 43/36/14
f 53/31/14 40/9/14 50/30/14
f 53/31/14 41/12/14 40/9/14
f 53/31/14 42/14/14 41/12/14
f 50/30/8 40/9/8 47/10/8 49/29/8
f 52/16/14 42/14/14 53/31/14
f 61/34/14 37/1/14 57/33/14
f 61/34/14 38/4/14 37/1/14
f 61/34/14 39/6/14 38/4/14
f 57/33/8 37/1/8 55/2/8 58/32/8
f 59/8/14 39/6/14 61/34/14
f 44/50/9 43/17/9 10/18/9 11/51/9
f 14/19/10 63/20/10 62/53/10 15/52/10
f 16/54/11 65/57/11 64/56/11 12/55/11
f 63/37/15 64/38/15 65/59/15 62/58/15
f 64/56/13 45/61/13 13/60/13 12/55/13
