# Blender 4.5.3 LTS
# www.blender.org
mtllib microcar.mtl
o Microcar_Blue
v 0.445149 0.507780 -1.308199
v 0.445149 0.623502 -1.028820
v 0.445149 0.507780 -0.749442
v 0.445150 0.507780 0.534765
v 0.445150 0.623502 0.814144
v 0.445150 0.507780 1.093522
v 0.735866 0.731786 -1.468350
v 0.735867 0.195438 -1.468350
v 0.735867 0.195438 1.204210
v -0.000000 0.731786 -1.468350
v -0.000000 0.195438 -1.468350
v 0.000000 1.554692 0.977249
v 0.000000 0.195438 1.204210
v -0.000000 1.554692 -0.246112
v -0.000000 0.999189 -1.092550
v 0.000000 0.999189 1.204210
v 0.735867 0.623502 0.814144
v 0.735867 0.507780 1.093522
v 0.735867 0.507780 0.534765
v 0.445150 0.195438 0.814144
v 0.445150 0.195438 1.148332
v 0.735867 0.195438 1.148332
v 0.735867 0.195438 0.479956
v 0.445150 0.195438 0.479956
v 0.735867 0.623502 -1.028821
v 0.735867 0.507780 -0.749442
v 0.735866 0.507780 -1.308199
v 0.445149 0.195438 -1.028821
v 0.445149 0.195438 -0.694632
v 0.735867 0.195438 -0.694633
v 0.735867 0.195438 -1.363008
v 0.445149 0.195438 -1.363008
v 0.494534 1.554692 -0.246112
v 0.735866 0.999189 -1.092550
v 0.735867 0.999189 1.204210
v 0.494534 1.554692 0.977249
v -0.445150 0.507780 -1.308199
v -0.445150 0.623502 -1.028820
v -0.445150 0.507780 -0.749442
v -0.445149 0.507780 0.534766
v -0.445149 0.623502 0.814144
v -0.445149 0.507780 1.093523
v -0.735867 0.731786 -1.468349
v -0.735868 0.195438 -1.468349
v -0.735867 0.195438 1.204210
v -0.735867 0.623502 0.814144
v -0.735867 0.507780 1.093523
v -0.735867 0.507780 0.534766
v -0.445149 0.195438 0.814144
v -0.445149 0.195438 1.148332
v -0.735867 0.195438 1.148332
v -0.735867 0.195438 0.479956
v -0.445149 0.195438 0.479956
v -0.735867 0.623502 -1.028820
v -0.735867 0.507780 -0.749442
v -0.735867 0.507780 -1.308198
v -0.445150 0.195438 -1.028820
v -0.445150 0.195438 -0.694632
v -0.735867 0.195438 -0.694632
v -0.735867 0.195438 -1.363008
v -0.445150 0.195438 -1.363008
v -0.494534 1.554692 -0.246112
v -0.735867 0.999189 -1.092549
v -0.735866 0.999189 1.204210
v -0.494534 1.554692 0.977250
vn -0.0000 0.8148 -0.5798
vn 0.9172 0.3985 -0.0000
vn -0.0000 -0.9239 0.3827
vn -0.0000 -0.9239 -0.3827
vn -0.0000 -0.1728 -0.9850
vn 1.0000 -0.0000 -0.0000
vn -0.0000 1.0000 -0.0000
vn -0.0000 -0.0000 -1.0000
vn -0.0000 -0.1728 0.9850
vn -0.0000 0.3782 0.9257
vn -0.0000 0.8360 -0.5487
vn -0.0000 -0.0000 1.0000
vn -0.9172 0.3985 -0.0000
vn -1.0000 -0.0000 -0.0000
vn -0.0000 -1.0000 -0.0000
vt 0.718528 0.815446
vt 0.718528 0.995052
vt 0.605955 0.995052
vt 0.605955 0.815446
vt 0.201992 0.098630
vt 0.349471 0.304739
vt 0.349471 0.602628
vt 0.201992 0.657893
vt 0.418135 0.704807
vt 0.364940 0.720241
vt 0.358845 0.657556
vt 0.407924 0.662795
vt 0.376502 0.602119
vt 0.417549 0.622832
vt 0.404261 0.551089
vt 0.471281 0.572973
vt 0.426151 0.166902
vt 0.371039 0.181923
vt 0.367531 0.118002
vt 0.416713 0.124212
vt 0.386356 0.063716
vt 0.427099 0.084153
vt 0.410652 0.015721
vt 0.483810 0.032835
vt 0.006278 0.481537
vt 0.006278 0.195524
vt 0.082334 0.182177
vt 0.082334 0.494883
vt 0.611660 0.004948
vt 0.732362 0.004948
vt 0.732362 0.303538
vt 0.611660 0.303538
vt 0.849436 0.815446
vt 0.849436 0.995052
vt 0.495378 0.125541
vt 0.482164 0.221470
vt 0.402331 0.252003
vt 0.485220 0.664243
vt 0.474368 0.758583
vt 0.396716 0.785063
vt 0.151411 0.667145
vt 0.151411 0.846751
vt 0.004948 0.787848
vt 0.004948 0.667145
vt 0.358845 0.995052
vt 0.358845 0.874349
vt 0.347586 0.667145
vt 0.347586 0.846751
vt 0.201612 0.097918
vt 0.201612 0.657816
vt 0.349258 0.602489
vt 0.349258 0.304261
vt 0.005675 0.481260
vt 0.081818 0.494621
vt 0.081818 0.181560
vt 0.005675 0.194921
vt 0.110028 0.562727
vt 0.110028 0.113454
vt 0.005675 0.657816
vt 0.081818 0.630833
vt 0.005675 0.644195
vt 0.081818 0.045348
vt 0.136425 0.006306
vt 0.005676 0.006306
vt 0.005675 0.031986
vt 0.110512 0.562912
vt 0.110512 0.114148
vt 0.006278 0.657893
vt 0.006278 0.644287
vt 0.082334 0.630941
vt 0.082334 0.046120
vt 0.136880 0.007123
vt 0.006278 0.007123
vt 0.006278 0.032773
vt 0.552576 0.582878
vt 0.487965 0.582878
vt 0.527050 0.577972
vt 0.552576 0.577972
vt 0.423354 0.582878
vt 0.423354 0.577972
vt 0.448880 0.577972
vt 0.527050 0.548629
vt 0.448880 0.548629
vt 0.448880 0.519286
vt 0.527050 0.519286
vt 0.527050 0.416155
vt 0.552576 0.416155
vt 0.552576 0.519286
vt 0.423354 0.519287
vt 0.423354 0.416155
vt 0.448880 0.416155
vt 0.487965 0.348220
vt 0.552576 0.348220
vt 0.552576 0.357470
vt 0.527050 0.357470
vt 0.448880 0.357470
vt 0.423354 0.357470
vt 0.423354 0.348220
vt 0.527050 0.386812
vt 0.448880 0.386812
s 0
usemtl Material.001
f 7/1/1 10/2/1 15/3/1 34/4/1
f 34/5/2 33/6/2 36/7/2 35/8/2
f 1/9/3 27/10/3 25/11/3 2/12/3
f 2/12/4 25/11/4 26/13/4 3/14/4
f 3/14/5 26/13/5 30/15/5 29/16/5
f 4/17/3 19/18/3 17/19/3 5/20/3
f 5/20/4 17/19/4 18/21/4 6/22/4
f 6/22/5 18/21/5 22/23/5 21/24/5
f 23/25/6 30/26/6 26/27/6 19/28/6
f 33/29/7 14/30/7 12/31/7 36/32/7
f 8/33/8 11/34/8 10/2/8 7/1/8
f 20/35/6 24/36/6 4/17/6
f 20/35/6 4/17/6 5/20/6
f 20/35/6 5/20/6 6/22/6
f 24/36/9 23/37/9 19/18/9 4/17/9
f 21/24/6 20/35/6 6/22/6
f 28/38/6 32/39/6 1/9/6
f 28/38/6 1/9/6 2/12/6
f 28/38/6 2/12/6 3/14/6
f 32/39/9 31/40/9 27/10/9 1/9/9
f 29/16/6 28/38/6 3/14/6
f 16/41/10 35/42/10 36/43/10 12/44/10
f 15/3/11 14/45/11 33/46/11 34/4/11
f 16/41/12 13/47/12 9/48/12 35/42/12
f 43/1/1 63/4/1 15/3/1 10/2/1
f 63/49/13 64/50/13 65/51/13 62/52/13
f 37/9/3 38/12/3 54/11/3 56/10/3
f 38/12/4 39/14/4 55/13/4 54/11/4
f 39/14/5 58/16/5 59/15/5 55/13/5
f 40/17/3 41/20/3 46/19/3 48/18/3
f 41/20/4 42/22/4 47/21/4 46/19/4
f 42/22/5 50/24/5 51/23/5 47/21/5
f 52/53/14 48/54/14 55/55/14 59/56/14
f 62/29/7 65/32/7 12/31/7 14/30/7
f 44/33/8 43/1/8 10/2/8 11/34/8
f 49/35/14 40/17/14 53/36/14
f 49/35/14 41/20/14 40/17/14
f 49/35/14 42/22/14 41/20/14
f 53/36/9 40/17/9 48/18/9 52/37/9
f 50/24/14 42/22/14 49/35/14
f 57/38/14 37/9/14 61/39/14
f 57/38/14 38/12/14 37/9/14
f 57/38/14 39/14/14 38/12/14
f 61/39/9 37/9/9 56/10/9 60/40/9
f 58/16/14 39/14/14 57/38/14
f 16/41/10 12/44/10 65/43/10 64/42/10
f 15/3/11 63/4/11 62/46/11 14/45/11
f 16/41/12 64/42/12 45/48/12 13/47/12
f 46/57/14 54/58/14 55/55/14 48/54/14
f 63/49/14 54/58/14 46/57/14 64/50/14
f 45/59/14 64/50/14 47/60/14 51/61/14
f 46/57/14 47/60/14 64/50/14
f 56/62/14 54/58/14 63/49/14 43/63/14
f 44/64/14 60/65/14 56/62/14 43/63/14
f 17/66/6 19/28/6 26/27/6 25/67/6
f 9/68/6 22/69/6 18/70/6 35/8/6
f 17/66/6 35/8/6 18/70/6
f 34/5/6 35/8/6 17/66/6 25/67/6
f 27/71/6 7/72/6 34/5/6 25/67/6
f 8/73/6 7/72/6 27/71/6 31/74/6
f 9/75/15 13/76/15 21/77/15 22/78/15
f 45/79/15 51/80/15 50/81/15 13/76/15
f 21/77/15 13/76/15 20/82/15
f 50/81/15 49/83/15 13/76/15
f 13/76/15 49/83/15 20/82/15
f 20/82/15 49/83/15 53/84/15 24/85/15
f 24/85/15 29/86/15 30/87/15 23/88/15
f 53/84/15 52/89/15 59/90/15 58/91/15
f 11/92/15 8/93/15 31/94/15 32/95/15
f 11/92/15 61/96/15 60/97/15 44/98/15
f 32/95/15 28/99/15 11/92/15
f 61/96/15 11/92/15 57/100/15
f 11/92/15 28/99/15 57/100/15
f 29/86/15 58/91/15 57/100/15 28/99/15
f 53/84/15 58/91/15 29/86/15 24/85/15
o Wheel_FR
v 0.457273 0.285534 -1.028821
v 0.457273 0.285534 -0.744825
v 0.670237 0.285534 -0.744825
v 0.457273 0.084719 -0.828005
v 0.670237 0.084719 -0.828005
v 0.457273 0.001538 -1.028821
v 0.670237 0.001538 -1.028821
v 0.457273 0.084719 -1.229636
v 0.670236 0.084719 -1.229636
v 0.457273 0.285534 -1.312816
v 0.670237 0.285534 -1.312816
v 0.457273 0.486349 -1.229636
v 0.670237 0.486349 -1.229636
v 0.457273 0.569530 -1.028821
v 0.670237 0.569530 -1.028821
v 0.457273 0.486349 -0.828005
v 0.670237 0.486349 -0.828005
vn -1.0000 -0.0000 -0.0000
vn -0.0000 -0.3827 0.9239
vn -0.0000 -0.9239 0.3827
vn -0.0000 -0.9239 -0.3827
vn -0.0000 -0.3827 -0.9239
vn -0.0000 0.3827 -0.9239
vn -0.0000 0.9239 -0.3827
vn -0.0000 0.9239 0.3827
vn -0.0000 0.3827 0.9239
vn 1.0000 -0.0000 -0.0000
vt 0.451203 0.220570
vt 0.416402 0.303231
vt 0.486002 0.303373
vt 0.553831 0.505440
vt 0.553831 0.567978
vt 0.622194 0.567978
vt 0.622194 0.505440
vt 0.367187 0.254668
vt -0.073556 0.597821
vt -0.073556 0.661168
vt -0.005193 0.661168
vt -0.005193 0.597821
vt 0.367187 0.186130
vt -0.073556 0.724515
vt -0.005193 0.724515
vt 0.416402 0.137767
vt 0.194141 0.756542
vt 0.194141 0.691383
vt 0.125779 0.691383
vt 0.125779 0.756542
vt 0.486002 0.137908
vt 0.194141 0.630215
vt 0.125779 0.630215
vt 0.535217 0.186471
vt 0.219100 0.558909
vt 0.219100 0.622257
vt 0.287463 0.622257
vt 0.287463 0.558909
vt 0.535217 0.255009
vt 0.219100 0.685604
vt 0.287463 0.685604
vt 0.553831 0.441339
vt 0.622194 0.441339
vt 0.979726 0.527770
vt 0.886551 0.423200
vt 0.747721 0.413987
vt 0.644560 0.505530
vt 0.637500 0.644205
vt 0.730675 0.748775
vt 0.869506 0.757987
vt 0.972666 0.666445
s 0
usemtl wheel
f 66/101/16 69/102/16 67/103/16
f 67/104/17 69/105/17 70/106/17 68/107/17
f 66/101/16 71/108/16 69/102/16
f 69/109/18 71/110/18 72/111/18 70/112/18
f 66/101/16 73/113/16 71/108/16
f 71/110/19 73/114/19 74/115/19 72/111/19
f 66/101/16 75/116/16 73/113/16
f 73/117/20 75/118/20 76/119/20 74/120/20
f 66/101/16 77/121/16 75/116/16
f 75/118/21 77/122/21 78/123/21 76/119/21
f 66/101/16 79/124/16 77/121/16
f 77/125/22 79/126/22 80/127/22 78/128/22
f 66/101/16 81/129/16 79/124/16
f 79/126/23 81/130/23 82/131/23 80/127/23
f 66/101/16 67/103/16 81/129/16
f 81/132/24 67/104/24 68/107/24 82/133/24
f 68/134/25 70/135/25 72/136/25 74/137/25 76/138/25 78/139/25 80/140/25 82/141/25
o Wheel_FR.001
v 0.457274 0.285534 0.821583
v 0.457274 0.285534 1.105579
v 0.670237 0.285534 1.105579
v 0.457274 0.084719 1.022398
v 0.670237 0.084719 1.022398
v 0.457274 0.001538 0.821583
v 0.670237 0.001538 0.821583
v 0.457274 0.084719 0.620768
v 0.670237 0.084719 0.620768
v 0.457274 0.285534 0.537588
v 0.670237 0.285534 0.537587
v 0.457274 0.486349 0.620768
v 0.670237 0.486349 0.620768
v 0.457274 0.569530 0.821583
v 0.670237 0.569530 0.821583
v 0.457274 0.486349 1.022398
v 0.670237 0.486349 1.022398
vn -1.0000 -0.0000 -0.0000
vn -0.0000 -0.3827 0.9239
vn -0.0000 -0.9239 0.3827
vn -0.0000 -0.9239 -0.3827
vn -0.0000 -0.3827 -0.9239
vn -0.0000 0.3827 -0.9239
vn -0.0000 0.9239 -0.3827
vn -0.0000 0.9239 0.3827
vn -0.0000 0.3827 0.9239
vn 1.0000 -0.0000 -0.0000
vt 0.451203 0.220570
vt 0.416402 0.303231
vt 0.486002 0.303373
vt 0.553831 0.505440
vt 0.553831 0.567978
vt 0.622194 0.567978
vt 0.622194 0.505440
vt 0.367187 0.254668
vt -0.073556 0.597821
vt -0.073556 0.661168
vt -0.005193 0.661168
vt -0.005193 0.597821
vt 0.367187 0.186130
vt -0.073556 0.724515
vt -0.005193 0.724515
vt 0.416402 0.137767
vt 0.194141 0.756542
vt 0.194141 0.691383
vt 0.125779 0.691383
vt 0.125779 0.756542
vt 0.486002 0.137908
vt 0.194141 0.630215
vt 0.125779 0.630215
vt 0.535217 0.186471
vt 0.219100 0.558909
vt 0.219100 0.622257
vt 0.287463 0.622257
vt 0.287463 0.558909
vt 0.535217 0.255009
vt 0.219100 0.685604
vt 0.287463 0.685604
vt 0.553831 0.441339
vt 0.622194 0.441339
vt 0.979726 0.527770
vt 0.886551 0.423200
vt 0.747721 0.413987
vt 0.644560 0.505530
vt 0.637500 0.644205
vt 0.730675 0.748775
vt 0.869506 0.757987
vt 0.972666 0.666445
s 0
usemtl wheel
f 83/142/26 86/143/26 84/144/26
f 84/145/27 86/146/27 87/147/27 85/148/27
f 83/142/26 88/149/26 86/143/26
f 86/150/28 88/151/28 89/152/28 87/153/28
f 83/142/26 90/154/26 88/149/26
f 88/151/29 90/155/29 91/156/29 89/152/29
f 83/142/26 92/157/26 90/154/26
f 90/158/30 92/159/30 93/160/30 91/161/30
f 83/142/26 94/162/26 92/157/26
f 92/159/31 94/163/31 95/164/31 93/160/31
f 83/142/26 96/165/26 94/162/26
f 94/166/32 96/167/32 97/168/32 95/169/32
f 83/142/26 98/170/26 96/165/26
f 96/167/33 98/171/33 99/172/33 97/168/33
f 83/142/26 84/144/26 98/170/26
f 98/173/34 84/145/34 85/148/34 99/174/34
f 85/175/35 87/176/35 89/177/35 91/178/35 93/179/35 95/180/35 97/181/35 99/182/35
o Wheel_FR.002
v -0.452438 0.285534 0.822833
v -0.452438 0.285534 0.538837
v -0.665401 0.285534 0.538837
v -0.452438 0.084719 0.622018
v -0.665401 0.084719 0.622018
v -0.452438 0.001538 0.822833
v -0.665401 0.001538 0.822833
v -0.452438 0.084719 1.023648
v -0.665401 0.084719 1.023648
v -0.452438 0.285534 1.106829
v -0.665401 0.285534 1.106829
v -0.452438 0.486349 1.023648
v -0.665401 0.486349 1.023648
v -0.452438 0.569530 0.822833
v -0.665401 0.569530 0.822833
v -0.452438 0.486349 0.622018
v -0.665401 0.486349 0.622018
vn 1.0000 -0.0000 -0.0000
vn -0.0000 -0.3827 -0.9239
vn -0.0000 -0.9239 -0.3827
vn -0.0000 -0.9239 0.3827
vn -0.0000 -0.3827 0.9239
vn -0.0000 0.3827 0.9239
vn -0.0000 0.9239 0.3827
vn -0.0000 0.9239 -0.3827
vn -0.0000 0.3827 -0.9239
vn -1.0000 -0.0000 -0.0000
vt 0.451203 0.220570
vt 0.416402 0.303231
vt 0.486002 0.303373
vt 0.553831 0.505440
vt 0.553831 0.567978
vt 0.622194 0.567978
vt 0.622194 0.505440
vt 0.367187 0.254668
vt -0.073556 0.597821
vt -0.073556 0.661168
vt -0.005193 0.661168
vt -0.005193 0.597821
vt 0.367187 0.186130
vt -0.073556 0.724515
vt -0.005193 0.724515
vt 0.416402 0.137767
vt 0.194141 0.756542
vt 0.194141 0.691383
vt 0.125779 0.691383
vt 0.125779 0.756542
vt 0.486002 0.137908
vt 0.194141 0.630215
vt 0.125779 0.630215
vt 0.535217 0.186471
vt 0.219100 0.558909
vt 0.219100 0.622257
vt 0.287463 0.622257
vt 0.287463 0.558909
vt 0.535217 0.255009
vt 0.219100 0.685604
vt 0.287463 0.685604
vt 0.553831 0.441339
vt 0.622194 0.441339
vt 0.979726 0.527770
vt 0.886551 0.423200
vt 0.747721 0.413987
vt 0.644560 0.505530
vt 0.637500 0.644205
vt 0.730675 0.748775
vt 0.869506 0.757987
vt 0.972666 0.666445
s 0
usemtl wheel
f 100/183/36 103/184/36 101/185/36
f 101/186/37 103/187/37 104/188/37 102/189/37
f 100/183/36 105/190/36 103/184/36
f 103/191/38 105/192/38 106/193/38 104/194/38
f 100/183/36 107/195/36 105/190/36
f 105/192/39 107/196/39 108/197/39 106/193/39
f 100/183/36 109/198/36 107/195/36
f 107/199/40 109/200/40 110/201/40 108/202/40
f 100/183/36 111/203/36 109/198/36
f 109/200/41 111/204/41 112/205/41 110/201/41
f 100/183/36 113/206/36 111/203/36
f 111/207/42 113/208/42 114/209/42 112/210/42
f 100/183/36 115/211/36 113/206/36
f 113/208/43 115/212/43 116/213/43 114/209/43
f 100/183/36 101/185/36 115/211/36
f 115/214/44 101/186/44 102/189/44 116/215/44
f 102/216/45 104/217/45 106/218/45 108/219/45 110/220/45 112/221/45 114/222/45 116/223/45
o Wheel_FR.003
v -0.452438 0.285534 -1.027571
v -0.452438 0.285534 -1.311567
v -0.665401 0.285534 -1.311567
v -0.452438 0.084719 -1.228386
v -0.665401 0.084719 -1.228386
v -0.452438 0.001538 -1.027571
v -0.665401 0.001538 -1.027571
v -0.452438 0.084719 -0.826756
v -0.665401 0.084719 -0.826756
v -0.452438 0.285534 -0.743575
v -0.665401 0.285534 -0.743575
v -0.452438 0.486349 -0.826756
v -0.665401 0.486349 -0.826756
v -0.452438 0.569530 -1.027571
v -0.665401 0.569530 -1.027571
v -0.452438 0.486349 -1.228386
v -0.665401 0.486349 -1.228386
vn 1.0000 -0.0000 -0.0000
vn -0.0000 -0.3827 -0.9239
vn -0.0000 -0.9239 -0.3827
vn -0.0000 -0.9239 0.3827
vn -0.0000 -0.3827 0.9239
vn -0.0000 0.3827 0.9239
vn -0.0000 0.9239 0.3827
vn -0.0000 0.9239 -0.3827
vn -0.0000 0.3827 -0.9239
vn -1.0000 -0.0000 -0.0000
vt 0.451203 0.220570
vt 0.416402 0.303231
vt 0.486002 0.303373
vt 0.553831 0.505440
vt 0.553831 0.567978
vt 0.622194 0.567978
vt 0.622194 0.505440
vt 0.367187 0.254668
vt -0.073556 0.597821
vt -0.073556 0.661168
vt -0.005193 0.661168
vt -0.005193 0.597821
vt 0.367187 0.186130
vt -0.073556 0.724515
vt -0.005193 0.724515
vt 0.416402 0.137767
vt 0.194141 0.756542
vt 0.194141 0.691383
vt 0.125779 0.691383
vt 0.125779 0.756542
vt 0.486002 0.137908
vt 0.194141 0.630215
vt 0.125779 0.630215
vt 0.535217 0.186471
vt 0.219100 0.558909
vt 0.219100 0.622257
vt 0.287463 0.622257
vt 0.287463 0.558909
vt 0.535217 0.255009
vt 0.219100 0.685604
vt 0.287463 0.685604
vt 0.553831 0.441339
vt 0.622194 0.441339
vt 0.979726 0.527770
vt 0.886551 0.423200
vt 0.747721 0.413987
vt 0.644560 0.505530
vt 0.637500 0.644205
vt 0.730675 0.748775
vt 0.869506 0.757987
vt 0.972666 0.666445
s 0
usemtl wheel
f 117/224/46 120/225/46 118/226/46
f 118/227/47 120/228/47 121/229/47 119/230/47
f 117/224/46 122/231/46 120/225/46
f 120/232/48 122/233/48 123/234/48 121/235/48
f 117/224/46 124/236/46 122/231/46
f 122/233/49 124/237/49 125/238/49 123/234/49
f 117/224/46 126/239/46 124/236/46
f 124/240/50 126/241/50 127/242/50 125/243/50
f 117/224/46 128/244/46 126/239/46
f 126/241/51 128/245/51 129/246/51 127/242/51
f 117/224/46 130/247/46 128/244/46
f 128/248/52 130/249/52 131/250/52 129/251/52
f 117/224/46 132/252/46 130/247/46
f 130/249/53 132/253/53 133/254/53 131/250/53
f 117/224/46 118/226/46 132/252/46
f 132/255/54 118/227/54 119/230/54 133/256/54
f 119/257/55 121/258/55 123/259/55 125/260/55 127/261/55 129/262/55 131/263/55 133/264/55
