# Blender 4.5.3 LTS
# www.blender.org
mtllib truck_01_collision.mtl
o Cube
v -0.000000 2.423369 -1.686939
v -0.000000 2.451727 -0.396414
v -0.000000 1.297960 -2.563473
v -0.000000 0.008697 2.218279
v -0.000000 1.251987 2.218279
v 0.680753 1.851125 -0.618429
v 0.935024 0.006186 -2.078737
v 0.680753 2.035143 -1.580597
v 0.935024 1.440572 -0.217587
v 0.935024 1.297960 -2.078737
v 0.935024 0.008697 2.052050
v 0.935024 0.647979 2.052050
v 0.935024 0.001450 -0.618429
v -0.000000 0.001450 -0.618429
v -0.000000 0.006186 -2.563473
v -0.680753 1.851125 -0.618429
v -0.935024 0.006186 -2.078737
v -0.680753 2.035143 -1.580597
v -0.935024 1.440572 -0.217587
v -0.935024 1.297960 -2.078737
v -0.935024 0.008697 2.052050
v -0.935024 0.647979 2.052050
v -0.935024 0.001450 -0.618429
vn 0.5898 0.8056 0.0557
vn 0.9144 0.4047 0.0059
vn 0.3992 0.5791 -0.7108
vn 0.1750 -0.0000 0.9846
vn 0.4602 -0.0000 -0.8878
vn 0.0007 -1.0000 -0.0028
vn 0.0002 -1.0000 0.0026
vn -1.0000 -0.0000 -0.0000
vn 0.7087 0.6660 0.2326
vn 1.0000 -0.0000 -0.0000
vn 0.6154 0.7283 0.3015
vn -0.5898 0.8056 0.0557
vn -0.9144 0.4047 0.0059
vn -0.3992 0.5791 -0.7108
vn -0.1750 -0.0000 0.9846
vn -0.4602 -0.0000 -0.8878
vn -0.0007 -1.0000 -0.0028
vn -0.0002 -1.0000 0.0026
vn -0.7087 0.6660 0.2326
vn -0.6154 0.7283 0.3015
vt 0.691745 0.643793
vt 0.839426 0.643793
vt 0.839426 0.473466
vt 0.691745 0.473466
vt 0.174179 0.304609
vt 0.174178 0.000242
vt 0.000241 0.134281
vt 0.000241 0.304609
vt 0.218460 0.777833
vt 0.000241 0.777833
vt 0.000241 0.925514
vt 0.218460 0.950033
vt 0.519062 0.528884
vt 0.691263 0.528884
vt 0.691263 0.472983
vt 0.519062 0.472983
vt 0.390661 0.950033
vt 0.000000 0.000000
vt 0.863946 0.815994
s 0
f 2/1/1 6/2/1 8/3/1 1/4/1
f 9/5/2 10/6/2 8/7/2 6/8/2
f 3/9/3 1/10/3 8/11/3 10/12/3
f 4/13/4 11/14/4 12/15/4 5/16/4
f 3/9/5 10/12/5 7/17/5 15/18/5
f 13/18/6 14/18/6 15/18/6 7/17/6
f 4/13/7 14/18/7 13/18/7 11/14/7
f 1/10/8 3/9/8 15/18/8
f 1/10/8 15/18/8 14/18/8
f 1/10/8 14/18/8 4/13/8
f 1/10/8 4/13/8 5/16/8
f 1/10/8 5/16/8 2/1/8
f 12/15/9 9/19/9 6/2/9
f 11/14/10 13/18/10 7/17/10
f 11/14/10 7/17/10 10/18/10
f 11/14/10 10/18/10 9/5/10
f 11/14/10 9/5/10 12/15/10
f 12/15/11 6/2/11 2/1/11 5/18/11
f 2/1/12 1/4/12 18/3/12 16/2/12
f 19/5/13 16/8/13 18/7/13 20/6/13
f 3/9/14 20/12/14 18/11/14 1/10/14
f 4/13/15 5/16/15 22/15/15 21/14/15
f 3/9/16 15/18/16 17/17/16 20/12/16
f 23/18/17 17/17/17 15/18/17 14/18/17
f 4/13/18 21/14/18 23/18/18 14/18/18
f 22/15/19 16/2/19 19/19/19
f 21/14/8 17/17/8 23/18/8
f 21/14/8 20/18/8 17/17/8
f 21/14/8 19/5/8 20/18/8
f 21/14/8 22/15/8 19/5/8
f 22/15/20 5/18/20 2/1/20 16/2/20
