# Blender 4.5.3 LTS
# www.blender.org
mtllib truck_01_collision.mtl
o Cube
v -0.796515 2.270706 -0.618429
v -0.935024 0.006186 -2.337776
v -0.796515 2.270706 -1.580597
v -0.000000 2.270706 -1.580597
v -0.000000 2.270706 -0.618429
v -0.935024 1.297960 -0.618429
v -0.935024 1.297960 -2.337776
v -0.000000 1.297960 -0.618429
v -0.000000 1.297960 -2.337776
v -0.935024 0.971278 -0.618429
v -0.000000 0.971278 -0.618429
v -0.935024 0.982181 -2.337776
v -0.000000 0.008697 2.052050
v -0.935024 0.008697 2.052050
v -0.000000 0.971278 2.052050
v -0.935024 0.971278 2.052050
v 0.796515 2.270706 -0.618429
v 0.935024 0.006186 -2.337776
v 0.796515 2.270706 -1.580597
v 0.935024 1.297960 -0.618429
v 0.935024 1.297960 -2.337776
v 0.935024 0.971278 -0.618429
v 0.935024 0.982181 -2.337776
v 0.935024 0.008697 2.052050
v 0.935024 0.971278 2.052050
v -0.935024 0.001450 -0.618429
v 0.935024 0.001450 -0.618429
vn -0.0000 -0.0000 1.0000
vn -0.0000 1.0000 -0.0000
vn -0.9900 0.1410 -0.0000
vn -1.0000 -0.0000 -0.0000
vn -0.0000 0.6142 -0.7891
vn -0.0000 -0.0000 -1.0000
vn 0.9900 0.1410 -0.0000
vn 1.0000 -0.0000 -0.0000
vn -0.0000 -1.0000 0.0027
vn -0.0000 -1.0000 -0.0028
vt 0.691745 0.815994
vt 0.691745 0.643793
vt 0.839426 0.643793
vt 0.863946 0.815994
vt 0.691745 0.473466
vt 0.839426 0.473466
vt 0.174179 0.304609
vt 0.000241 0.304609
vt 0.000241 0.134281
vt 0.174178 0.000242
vt 0.691745 0.873825
vt 0.863946 0.873825
vt 0.232010 0.304609
vt 0.230079 0.000242
vt 0.218460 0.777833
vt 0.218460 0.950033
vt 0.000241 0.925514
vt 0.000241 0.777833
vt 0.274361 0.950033
vt 0.519062 0.528884
vt 0.519062 0.472983
vt 0.691263 0.472983
vt 0.691263 0.528884
vt 0.519062 0.000241
vt 0.691263 0.000241
vt 0.390661 0.950033
vt 0.000000 0.000000
s 0
f 8/1/1 5/2/1 1/3/1 6/4/1
f 5/2/2 4/5/2 3/6/2 1/3/2
f 6/7/3 1/8/3 3/9/3 7/10/3
f 11/11/1 8/1/1 6/4/1 10/12/1
f 10/13/4 6/7/4 7/10/4 12/14/4
f 9/15/5 7/16/5 3/17/5 4/18/5
f 12/19/6 7/10/6 21/10/6 23/19/6
f 13/20/1 15/21/1 16/22/1 14/23/1
f 11/24/2 10/25/2 16/22/2 15/21/2
f 8/1/1 20/4/1 17/3/1 5/2/1
f 5/2/2 17/3/2 19/6/2 4/5/2
f 20/7/7 21/10/7 19/9/7 17/8/7
f 11/11/1 22/12/1 20/4/1 8/1/1
f 22/13/8 23/14/8 21/10/8 20/7/8
f 9/15/5 4/18/5 19/17/5 21/16/5
f 13/20/1 24/23/1 25/22/1 15/21/1
f 11/24/2 15/21/2 25/22/2 22/25/2
f 12/19/6 23/19/6 18/26/6 2/26/6
f 24/23/8 27/27/8 22/25/8 25/22/8
f 22/25/8 27/27/8 18/26/8 23/19/8
f 2/26/4 26/27/4 10/13/4 12/19/4
f 10/13/4 26/27/4 14/23/4 16/22/4
f 27/27/9 24/23/9 14/23/9 26/27/9
f 2/26/10 18/26/10 27/27/10 26/27/10
